<mxfile host="app.diagrams.net" modified="2023-12-29T07:42:13.210Z" agent="Mozilla/5.0 (Windows NT 10.0; Win64; x64) AppleWebKit/537.36 (KHTML, like Gecko) Chrome/120.0.0.0 Safari/537.36 Edg/120.0.0.0" etag="pMgTvTzxmlcb0qmzP5yR" version="22.1.15" type="device">
  <diagram name="Page-1" id="b520641d-4fe3-3701-9064-5fc419738815">
    <mxGraphModel dx="1025" dy="513" grid="1" gridSize="10" guides="1" tooltips="1" connect="1" arrows="1" fold="1" page="1" pageScale="1" pageWidth="1100" pageHeight="850" background="none" math="0" shadow="0">
      <root>
        <mxCell id="0" />
        <mxCell id="1" parent="0" />
        <mxCell id="vBp6k9hzwLnXqRMihRMG-20" style="edgeStyle=none;curved=0;rounded=1;orthogonalLoop=1;jettySize=auto;html=1;exitX=1;exitY=0.5;exitDx=0;exitDy=0;entryX=0.5;entryY=0;entryDx=0;entryDy=0;fontSize=12;startSize=8;endSize=8;" parent="1" source="vBp6k9hzwLnXqRMihRMG-4" target="vBp6k9hzwLnXqRMihRMG-5" edge="1">
          <mxGeometry relative="1" as="geometry">
            <Array as="points">
              <mxPoint x="390" y="100" />
            </Array>
          </mxGeometry>
        </mxCell>
        <mxCell id="vBp6k9hzwLnXqRMihRMG-4" value="Покупатель" style="rounded=0;whiteSpace=wrap;html=1;fontSize=16;strokeWidth=2;" parent="1" vertex="1">
          <mxGeometry x="70" y="70" width="120" height="60" as="geometry" />
        </mxCell>
        <mxCell id="vBp6k9hzwLnXqRMihRMG-16" style="edgeStyle=none;curved=1;rounded=0;orthogonalLoop=1;jettySize=auto;html=1;exitX=0.75;exitY=1;exitDx=0;exitDy=0;entryX=0.75;entryY=0;entryDx=0;entryDy=0;fontSize=12;startSize=8;endSize=8;" parent="1" source="vBp6k9hzwLnXqRMihRMG-5" target="vBp6k9hzwLnXqRMihRMG-13" edge="1">
          <mxGeometry relative="1" as="geometry" />
        </mxCell>
        <mxCell id="vBp6k9hzwLnXqRMihRMG-17" style="edgeStyle=none;curved=1;rounded=0;orthogonalLoop=1;jettySize=auto;html=1;exitX=0.25;exitY=1;exitDx=0;exitDy=0;entryX=0.75;entryY=0;entryDx=0;entryDy=0;fontSize=12;startSize=8;endSize=8;" parent="1" source="vBp6k9hzwLnXqRMihRMG-5" target="vBp6k9hzwLnXqRMihRMG-14" edge="1">
          <mxGeometry relative="1" as="geometry" />
        </mxCell>
        <mxCell id="vBp6k9hzwLnXqRMihRMG-23" style="edgeStyle=none;curved=1;rounded=0;orthogonalLoop=1;jettySize=auto;html=1;exitX=1;exitY=0.5;exitDx=0;exitDy=0;entryX=0;entryY=0.5;entryDx=0;entryDy=0;fontSize=12;startSize=8;endSize=8;" parent="1" source="vBp6k9hzwLnXqRMihRMG-5" target="vBp6k9hzwLnXqRMihRMG-8" edge="1">
          <mxGeometry relative="1" as="geometry" />
        </mxCell>
        <mxCell id="vBp6k9hzwLnXqRMihRMG-5" value="Обработать заявку клиента" style="rounded=1;whiteSpace=wrap;html=1;fontSize=16;" parent="1" vertex="1">
          <mxGeometry x="310" y="180" width="160" height="90" as="geometry" />
        </mxCell>
        <mxCell id="vBp6k9hzwLnXqRMihRMG-6" value="4" style="swimlane;horizontal=0;whiteSpace=wrap;html=1;fontSize=16;startSize=40;" parent="1" vertex="1">
          <mxGeometry x="600" y="530" width="120" height="70" as="geometry" />
        </mxCell>
        <mxCell id="vBp6k9hzwLnXqRMihRMG-7" value="Остатки&lt;br&gt;товара" style="text;html=1;align=center;verticalAlign=middle;resizable=0;points=[];autosize=1;strokeColor=none;fillColor=none;fontSize=16;" parent="vBp6k9hzwLnXqRMihRMG-6" vertex="1">
          <mxGeometry x="35" y="10" width="80" height="50" as="geometry" />
        </mxCell>
        <mxCell id="vBp6k9hzwLnXqRMihRMG-8" value="3" style="swimlane;horizontal=0;whiteSpace=wrap;html=1;fontSize=16;startSize=30;" parent="1" vertex="1">
          <mxGeometry x="615" y="190" width="120" height="70" as="geometry" />
        </mxCell>
        <mxCell id="vBp6k9hzwLnXqRMihRMG-11" value="Клиенты" style="text;html=1;align=center;verticalAlign=middle;resizable=0;points=[];autosize=1;strokeColor=none;fillColor=none;fontSize=16;" parent="vBp6k9hzwLnXqRMihRMG-8" vertex="1">
          <mxGeometry x="30" y="20" width="90" height="30" as="geometry" />
        </mxCell>
        <mxCell id="vBp6k9hzwLnXqRMihRMG-19" style="edgeStyle=none;curved=1;rounded=0;orthogonalLoop=1;jettySize=auto;html=1;exitX=0.5;exitY=0;exitDx=0;exitDy=0;entryX=0.5;entryY=1;entryDx=0;entryDy=0;fontSize=12;startSize=8;endSize=8;" parent="1" source="vBp6k9hzwLnXqRMihRMG-12" target="vBp6k9hzwLnXqRMihRMG-4" edge="1">
          <mxGeometry relative="1" as="geometry" />
        </mxCell>
        <mxCell id="vBp6k9hzwLnXqRMihRMG-12" value="Оформить отгрузку" style="rounded=1;whiteSpace=wrap;html=1;fontSize=16;" parent="1" vertex="1">
          <mxGeometry x="50" y="345" width="160" height="90" as="geometry" />
        </mxCell>
        <mxCell id="vBp6k9hzwLnXqRMihRMG-22" style="edgeStyle=none;curved=1;rounded=0;orthogonalLoop=1;jettySize=auto;html=1;exitX=1;exitY=0.5;exitDx=0;exitDy=0;entryX=0;entryY=0.5;entryDx=0;entryDy=0;fontSize=12;startSize=8;endSize=8;" parent="1" source="vBp6k9hzwLnXqRMihRMG-13" target="vBp6k9hzwLnXqRMihRMG-6" edge="1">
          <mxGeometry relative="1" as="geometry" />
        </mxCell>
        <mxCell id="vBp6k9hzwLnXqRMihRMG-13" value="Собрать заказ клиента" style="rounded=1;whiteSpace=wrap;html=1;fontSize=16;" parent="1" vertex="1">
          <mxGeometry x="310" y="520" width="160" height="90" as="geometry" />
        </mxCell>
        <mxCell id="vBp6k9hzwLnXqRMihRMG-18" style="edgeStyle=none;curved=1;rounded=0;orthogonalLoop=1;jettySize=auto;html=1;exitX=0;exitY=0.5;exitDx=0;exitDy=0;entryX=1;entryY=0.5;entryDx=0;entryDy=0;fontSize=12;startSize=8;endSize=8;" parent="1" source="vBp6k9hzwLnXqRMihRMG-14" target="vBp6k9hzwLnXqRMihRMG-12" edge="1">
          <mxGeometry relative="1" as="geometry" />
        </mxCell>
        <mxCell id="vBp6k9hzwLnXqRMihRMG-21" style="edgeStyle=none;curved=1;rounded=0;orthogonalLoop=1;jettySize=auto;html=1;exitX=0.75;exitY=1;exitDx=0;exitDy=0;entryX=0.25;entryY=0;entryDx=0;entryDy=0;fontSize=12;startSize=8;endSize=8;" parent="1" source="vBp6k9hzwLnXqRMihRMG-14" target="vBp6k9hzwLnXqRMihRMG-13" edge="1">
          <mxGeometry relative="1" as="geometry" />
        </mxCell>
        <mxCell id="vBp6k9hzwLnXqRMihRMG-14" value="2" style="swimlane;horizontal=0;whiteSpace=wrap;html=1;fontSize=16;" parent="1" vertex="1">
          <mxGeometry x="260" y="355" width="120" height="70" as="geometry" />
        </mxCell>
        <mxCell id="vBp6k9hzwLnXqRMihRMG-15" value="Заказы &lt;br&gt;клиентов" style="text;html=1;align=center;verticalAlign=middle;resizable=0;points=[];autosize=1;strokeColor=none;fillColor=none;fontSize=16;" parent="vBp6k9hzwLnXqRMihRMG-14" vertex="1">
          <mxGeometry x="30" y="10" width="90" height="50" as="geometry" />
        </mxCell>
        <mxCell id="vBp6k9hzwLnXqRMihRMG-26" value="Заявка клиента" style="text;html=1;strokeColor=none;fillColor=none;align=center;verticalAlign=middle;whiteSpace=wrap;rounded=0;fontSize=16;" parent="1" vertex="1">
          <mxGeometry x="210" y="70" width="130" height="30" as="geometry" />
        </mxCell>
        <mxCell id="vBp6k9hzwLnXqRMihRMG-27" value="Документы по заказу" style="text;html=1;strokeColor=none;fillColor=none;align=center;verticalAlign=middle;whiteSpace=wrap;rounded=0;fontSize=16;" parent="1" vertex="1">
          <mxGeometry x="50" y="210" width="60" height="30" as="geometry" />
        </mxCell>
        <mxCell id="vBp6k9hzwLnXqRMihRMG-29" value="Информация о заказе" style="text;html=1;strokeColor=none;fillColor=none;align=center;verticalAlign=middle;whiteSpace=wrap;rounded=0;fontSize=16;" parent="1" vertex="1">
          <mxGeometry x="460" y="360" width="60" height="30" as="geometry" />
        </mxCell>
        <mxCell id="vBp6k9hzwLnXqRMihRMG-30" value="Информация о заказе" style="text;html=1;strokeColor=none;fillColor=none;align=center;verticalAlign=middle;whiteSpace=wrap;rounded=0;fontSize=16;" parent="1" vertex="1">
          <mxGeometry x="520" y="190" width="60" height="30" as="geometry" />
        </mxCell>
        <mxCell id="vBp6k9hzwLnXqRMihRMG-31" value="Пересчитать остатки" style="text;html=1;strokeColor=none;fillColor=none;align=center;verticalAlign=middle;whiteSpace=wrap;rounded=0;fontSize=16;" parent="1" vertex="1">
          <mxGeometry x="510" y="530" width="60" height="30" as="geometry" />
        </mxCell>
        <mxCell id="vBp6k9hzwLnXqRMihRMG-32" value="Информация о заказе" style="text;html=1;strokeColor=none;fillColor=none;align=center;verticalAlign=middle;whiteSpace=wrap;rounded=0;fontSize=16;" parent="1" vertex="1">
          <mxGeometry x="260" y="300" width="60" height="30" as="geometry" />
        </mxCell>
        <mxCell id="vBp6k9hzwLnXqRMihRMG-35" value="Информация о заказе" style="text;html=1;strokeColor=none;fillColor=none;align=center;verticalAlign=middle;whiteSpace=wrap;rounded=0;fontSize=16;" parent="1" vertex="1">
          <mxGeometry x="270" y="450" width="60" height="30" as="geometry" />
        </mxCell>
      </root>
    </mxGraphModel>
  </diagram>
</mxfile>
